<?xml version="1.0" ?>
<!DOCTYPE svg  PUBLIC '-//W3C//DTD SVG 1.1//EN'  'http://www.w3.org/Graphics/SVG/1.1/DTD/svg11.dtd'>
<!-- Uploaded to: SVG Repo, www.svgrepo.com, Generator: SVG Repo Mixer Tools -->
<svg fill="#000000" width="800px" height="800px" viewBox="0 0 32 32" style="fill-rule:evenodd;clip-rule:evenodd;stroke-linejoin:round;stroke-miterlimit:2;" version="1.1" xml:space="preserve" xmlns="http://www.w3.org/2000/svg" xmlns:serif="http://www.serif.com/" xmlns:xlink="http://www.w3.org/1999/xlink">
<g transform="matrix(1,0,0,1,-384,-48)">
<g transform="matrix(1.09091,0,0,1.14286,120.727,-12)">
<path d="M266.858,63.993C266.894,63.743 266.815,63.49 266.64,63.3C266.466,63.109 266.215,63 265.95,63C262.238,63 249.762,63 246.05,63C245.785,63 245.534,63.109 245.36,63.3C245.185,63.49 245.106,63.743 245.142,63.993C245.487,66.409 246.372,72.606 246.784,75.486C246.908,76.354 247.683,77 248.6,77C252.016,77 259.984,77 263.4,77C264.317,77 265.092,76.354 265.216,75.486C265.628,72.606 266.513,66.409 266.858,63.993Z" style="fill:rgb(144,224,239);"/>
</g>
<path d="M390.382,59L389.146,59C388.568,59 388.019,59.25 387.639,59.685C387.259,60.12 387.086,60.698 387.164,61.27C387.541,64.032 388.506,71.114 388.955,74.405C389.158,75.892 390.427,77 391.928,77L408.072,77C409.573,77 410.842,75.892 411.045,74.405C411.494,71.114 412.459,64.032 412.836,61.27C412.914,60.698 412.741,60.12 412.361,59.685C411.981,59.25 411.432,59 410.854,59L409.618,59L405.894,51.553C405.648,51.059 405.046,50.859 404.553,51.106C404.059,51.352 403.859,51.954 404.106,52.447L407.382,59L392.618,59L395.894,52.447C396.141,51.954 395.941,51.352 395.447,51.106C394.954,50.859 394.352,51.059 394.106,51.553L390.382,59ZM410.854,61L389.146,61L390.937,74.135C391.004,74.631 391.428,75 391.928,75C391.928,75 408.072,75 408.072,75C408.572,75 408.996,74.631 409.063,74.135C409.063,74.135 410.854,61 410.854,61ZM397,65L397,71C397,71.552 397.448,72 398,72C398.552,72 399,71.552 399,71L399,65C399,64.448 398.552,64 398,64C397.448,64 397,64.448 397,65ZM401,65L401,71C401,71.552 401.448,72 402,72C402.552,72 403,71.552 403,71L403,65C403,64.448 402.552,64 402,64C401.448,64 401,64.448 401,65Z" style="fill:rgb(25,144,167);"/>
</g>
</svg>